<?xml version="1.0" standalone="no"?>
<!DOCTYPE svg PUBLIC "-//W3C//DTD SVG 20010904//EN"
 "http://www.w3.org/TR/2001/REC-SVG-20010904/DTD/svg10.dtd">
<svg version="1.0" xmlns="http://www.w3.org/2000/svg"
 width="1143.000000pt" height="374.000000pt" viewBox="0 0 1143.000000 374.000000"
 preserveAspectRatio="xMidYMid meet">

<g transform="translate(0.000000,374.000000) scale(0.100000,-0.100000)"
fill="#000000" stroke="none">
<path d="M4025 2708 c-51 -18 -83 -46 -113 -101 -85 -148 -91 -344 -17 -500
50 -107 142 -157 305 -165 103 -5 119 -14 120 -65 0 -61 -10 -67 -123 -67
-118 0 -139 11 -161 75 l-14 40 -86 3 -86 3 0 -171 0 -170 85 0 85 0 0 46 0
46 41 -36 c53 -49 75 -56 173 -56 110 0 163 19 219 79 62 66 88 141 95 268 5
118 -8 205 -43 274 -47 92 -118 126 -294 138 -118 8 -131 17 -131 86 0 63 19
75 117 75 95 0 125 -17 144 -81 l12 -39 61 0 c114 0 107 -11 104 169 l-3 156
-72 3 -71 3 -7 -42 -7 -41 -32 30 c-17 16 -41 35 -53 41 -27 14 -208 13 -248
-1z"/>
<path d="M4855 2643 c-10 -43 -52 -233 -95 -423 l-77 -345 -54 -5 -54 -5 0
-135 0 -135 173 -3 172 -2 0 134 0 135 -48 3 -47 3 13 63 14 62 73 0 73 0 14
-62 13 -63 -42 -3 -43 -3 0 -135 0 -134 240 0 240 0 0 130 0 129 -57 3 -56 3
-98 430 c-54 237 -99 431 -99 433 0 1 -54 2 -119 2 l-119 0 -17 -77z m95 -436
c7 -37 10 -70 7 -73 -3 -3 -20 -4 -39 -2 l-34 3 19 84 c21 94 28 92 47 -12z"/>
<path d="M5457 2713 c-4 -3 -7 -66 -7 -139 l0 -133 58 -3 57 -3 0 -280 0 -280
-57 -3 -58 -3 0 -139 0 -140 180 0 180 0 0 140 0 140 -60 0 -60 0 1 223 c0
122 3 215 6 207 4 -8 61 -163 129 -345 67 -181 125 -338 129 -348 7 -16 22
-17 159 -15 l151 3 3 423 2 422 55 0 56 0 -3 138 -3 137 -172 3 -173 2 0 -140
0 -140 55 0 55 0 0 -192 c0 -105 -2 -189 -4 -187 -2 2 -52 135 -111 294 -59
160 -114 307 -122 328 l-15 37 -212 0 c-117 0 -216 -3 -219 -7z"/>
<path d="M7144 2702 c-114 -40 -189 -139 -236 -314 -32 -115 -31 -344 0 -461
41 -150 115 -257 210 -304 53 -26 66 -28 177 -28 105 0 125 3 161 22 141 75
226 284 227 558 1 106 -3 145 -21 208 -43 152 -110 251 -203 302 -49 26 -65
30 -159 32 -82 3 -116 -1 -156 -15z m183 -264 c113 -124 107 -512 -9 -578
-121 -67 -205 333 -110 525 22 45 53 75 77 75 12 0 31 -10 42 -22z"/>
<path d="M7710 2475 l0 -245 85 0 85 0 0 110 0 110 65 0 65 0 0 -290 0 -289
-57 -3 -58 -3 -3 -137 -3 -138 246 0 246 0 -3 138 -3 137 -62 3 -63 3 0 289 0
290 70 0 70 0 0 -110 0 -110 80 0 80 0 0 245 0 245 -420 0 -420 0 0 -245z"/>
<path d="M8570 2580 l0 -140 55 0 55 0 0 -285 0 -285 -55 0 -55 0 0 -140 0
-140 235 0 235 0 0 140 0 140 -55 0 -55 0 0 285 0 285 55 0 55 0 0 140 0 140
-235 0 -235 0 0 -140z"/>
<path d="M9070 2580 l0 -140 55 0 55 0 0 -285 0 -285 -55 0 -55 0 0 -140 0
-140 410 0 410 0 0 250 0 251 -92 -3 -93 -3 -3 -107 -3 -108 -139 0 -140 0 0
285 0 285 60 0 61 0 -3 138 -3 137 -232 3 -233 2 0 -140z"/>
<path d="M9920 2580 l0 -140 55 0 55 0 0 -285 0 -285 -55 0 -55 0 0 -140 0
-140 235 0 235 0 0 140 0 140 -55 0 -55 0 0 285 0 285 55 0 55 0 0 140 0 140
-235 0 -235 0 0 -140z"/>
<path d="M10694 2702 c-114 -40 -189 -139 -236 -314 -32 -115 -31 -344 0 -461
41 -150 115 -257 210 -304 53 -26 66 -28 177 -28 105 0 125 3 161 22 141 75
226 284 227 558 1 106 -3 145 -21 208 -43 152 -110 251 -203 302 -49 26 -65
30 -159 32 -82 3 -116 -1 -156 -15z m183 -264 c113 -124 107 -512 -9 -578
-121 -67 -205 333 -110 525 22 45 53 75 77 75 12 0 31 -10 42 -22z"/>
<path d="M5440 1260 l0 -220 45 0 44 0 3 152 3 153 56 -150 56 -150 59 -3 59
-3 54 144 c29 79 57 150 62 158 5 9 9 -47 9 -143 l0 -158 45 0 45 0 0 220 0
221 -76 -3 -77 -3 -56 -147 c-31 -80 -59 -149 -62 -152 -3 -4 -33 63 -65 149
l-59 155 -72 0 -73 0 0 -220z"/>
<path d="M6086 1265 c-47 -118 -86 -217 -86 -220 0 -3 22 -5 49 -5 l49 0 17
50 17 51 95 -3 95 -3 17 -45 c16 -45 17 -45 68 -48 l52 -3 -88 218 -87 218
-56 3 -56 3 -86 -216z m173 41 c12 -32 20 -61 17 -63 -2 -2 -26 -3 -53 -1
l-50 3 25 68 c14 37 28 64 32 60 4 -4 17 -35 29 -67z"/>
<path d="M6400 1425 l0 -55 60 0 60 0 0 -165 0 -165 45 0 45 0 0 165 0 165 70
0 70 0 0 55 0 55 -175 0 -175 0 0 -55z"/>
<path d="M6790 1260 l0 -220 185 0 185 0 0 55 0 55 -140 0 -140 0 0 30 0 30
140 0 140 0 0 50 0 50 -140 0 -140 0 0 30 0 30 140 0 140 0 0 55 0 55 -185 0
-185 0 0 -220z"/>
<path d="M7220 1261 l0 -221 45 0 45 0 0 55 0 55 63 0 62 -1 44 -54 43 -55 59
0 c54 0 59 2 50 18 -5 9 -21 28 -36 42 -46 43 -50 58 -19 82 76 61 71 213 -9
272 -25 19 -45 21 -188 24 l-159 4 0 -221z m307 83 c15 -24 15 -29 2 -53 -14
-25 -18 -26 -117 -29 l-102 -3 0 56 0 55 100 0 c96 0 100 -1 117 -26z"/>
<path d="M7670 1260 l0 -220 45 0 45 0 0 220 0 220 -45 0 -45 0 0 -220z"/>
<path d="M7866 1265 c-47 -118 -86 -217 -86 -220 0 -3 22 -5 49 -5 l49 0 17
50 17 51 95 -3 95 -3 17 -45 c16 -45 17 -45 68 -48 l52 -3 -88 218 -87 218
-56 3 -56 3 -86 -216z m173 41 c12 -32 20 -61 17 -63 -2 -2 -26 -3 -53 -1
l-50 3 25 68 c14 37 28 64 32 60 4 -4 17 -35 29 -67z"/>
<path d="M8260 1260 l0 -220 185 0 185 0 0 55 0 55 -140 0 -140 0 0 165 0 165
-45 0 -45 0 0 -220z"/>
<path d="M8690 1260 l0 -220 185 0 185 0 0 55 0 55 -140 0 -140 0 0 30 0 30
140 0 140 0 0 50 0 50 -140 0 -140 0 0 30 0 30 140 0 140 0 0 55 0 55 -185 0
-185 0 0 -220z"/>
<path d="M9161 1461 c-44 -24 -60 -55 -61 -119 0 -46 4 -58 28 -82 32 -31 102
-50 187 -50 61 0 95 -21 74 -46 -8 -10 -36 -14 -95 -14 -73 0 -85 3 -96 20
-10 15 -24 20 -55 20 -37 0 -43 -3 -43 -21 0 -36 29 -84 62 -104 39 -23 165
-32 224 -16 139 37 125 238 -18 255 -180 22 -173 20 -176 44 -3 22 -1 22 93
22 88 0 97 -2 102 -20 4 -16 14 -20 49 -20 41 0 44 2 44 28 0 40 -36 91 -75
108 -51 21 -200 18 -244 -5z"/>
<path d="M10375 850 c-25 -39 -45 -72 -45 -75 0 -3 17 -5 37 -5 32 0 46 9 114
75 l77 75 -69 0 -69 0 -45 -70z"/>
<path d="M3910 521 l0 -221 45 0 45 0 0 54 0 54 114 3 c97 4 119 7 143 25 84
62 84 216 0 278 -25 19 -45 21 -188 24 l-159 4 0 -221z m307 83 c15 -24 15
-29 2 -53 -14 -25 -18 -26 -117 -29 l-102 -3 0 56 0 55 100 0 c96 0 100 -1
117 -26z"/>
<path d="M4366 525 c-47 -118 -86 -217 -86 -220 0 -3 22 -5 49 -5 l49 0 17 50
17 51 95 -3 95 -3 17 -45 c16 -45 17 -45 68 -48 l52 -3 -88 218 -87 218 -56 3
-56 3 -86 -216z m173 41 c12 -32 20 -61 17 -63 -2 -2 -26 -3 -53 -1 l-50 3 25
68 c14 37 28 64 32 60 4 -4 17 -35 29 -67z"/>
<path d="M4750 521 l0 -221 45 0 45 0 0 55 0 55 63 0 62 -1 44 -54 43 -55 108
0 108 0 17 50 17 51 95 -3 95 -3 17 -45 c16 -45 17 -45 68 -48 l52 -3 -88 218
-87 218 -56 3 -56 3 -77 -193 c-42 -106 -81 -203 -86 -216 -9 -22 -10 -21 -54
28 -25 28 -45 53 -45 56 0 4 12 15 26 27 76 60 71 212 -9 271 -25 19 -45 21
-188 24 l-159 4 0 -221z m679 45 c12 -32 20 -61 17 -63 -2 -2 -26 -3 -53 -1
l-50 3 25 68 c14 37 28 64 32 60 4 -4 17 -35 29 -67z m-372 38 c15 -24 15 -29
2 -53 -14 -25 -18 -26 -117 -29 l-102 -3 0 56 0 55 100 0 c96 0 100 -1 117
-26z"/>
<path d="M5957 726 c-49 -18 -62 -30 -86 -80 -31 -63 -30 -197 2 -257 33 -62
73 -82 172 -87 136 -7 202 28 230 122 8 27 15 51 15 53 0 2 -21 3 -47 3 -44 0
-49 -3 -63 -33 l-15 -32 -91 -3 c-116 -4 -129 7 -129 108 0 101 13 112 129
108 l91 -3 15 -32 c14 -30 19 -33 63 -33 26 0 47 1 47 3 0 2 -7 26 -15 53 -16
56 -53 96 -104 113 -46 15 -167 13 -214 -3z"/>
<path d="M6427 726 c-80 -29 -106 -81 -107 -206 0 -155 48 -210 191 -218 145
-8 215 32 238 138 30 141 -14 260 -107 288 -52 16 -168 14 -215 -2z m217 -118
c11 -15 16 -45 16 -88 0 -100 -11 -110 -118 -110 -48 0 -92 4 -99 8 -18 11
-33 58 -33 102 0 44 15 91 33 102 7 4 51 8 99 8 79 0 88 -2 102 -22z"/>
<path d="M6810 520 l0 -220 45 0 44 0 3 152 3 152 104 -152 105 -152 68 0 68
0 0 220 0 220 -45 0 -44 0 -3 -156 -3 -156 -106 154 -105 153 -67 3 -67 3 0
-221z"/>
<path d="M7351 721 c-44 -24 -60 -55 -61 -119 0 -46 4 -58 28 -82 32 -31 102
-50 187 -50 61 0 95 -21 74 -46 -8 -10 -36 -14 -95 -14 -73 0 -85 3 -96 20
-10 15 -24 20 -55 20 -37 0 -43 -3 -43 -21 0 -36 29 -84 62 -104 39 -23 165
-32 224 -16 139 37 125 238 -18 255 -180 22 -173 20 -176 44 -3 22 -1 22 93
22 88 0 97 -2 102 -20 4 -16 14 -20 49 -20 41 0 44 2 44 28 0 40 -36 91 -75
108 -51 21 -200 18 -244 -5z"/>
<path d="M7700 685 l0 -55 60 0 60 0 0 -165 0 -165 45 0 45 0 0 165 0 165 70
0 70 0 0 55 0 55 -175 0 -175 0 0 -55z"/>
<path d="M8090 521 l0 -221 45 0 45 0 0 55 0 55 63 0 62 -1 44 -54 43 -55 59
0 c54 0 59 2 50 17 -5 10 -21 29 -36 43 -46 43 -50 58 -19 82 76 61 71 213 -9
272 -25 19 -45 21 -188 24 l-159 4 0 -221z m307 83 c15 -24 15 -29 2 -53 -14
-25 -18 -26 -117 -29 l-102 -3 0 56 0 55 100 0 c96 0 100 -1 117 -26z"/>
<path d="M8540 587 c0 -142 2 -157 23 -198 33 -62 73 -82 172 -87 195 -10 245
52 245 305 l0 133 -44 0 -45 0 -3 -144 c-4 -185 -5 -186 -127 -186 -47 0 -91
4 -97 8 -27 18 -34 56 -34 186 l0 136 -45 0 -45 0 0 -153z"/>
<path d="M9127 726 c-49 -18 -62 -30 -86 -80 -31 -63 -30 -197 2 -257 33 -62
73 -82 172 -87 136 -7 202 28 230 122 8 27 15 51 15 53 0 2 -21 3 -47 3 -44 0
-49 -3 -63 -33 l-15 -32 -91 -3 c-116 -4 -129 7 -129 108 0 101 13 112 129
108 l91 -3 15 -32 c14 -30 19 -33 63 -33 26 0 47 1 47 3 0 2 -7 26 -15 53 -16
56 -53 96 -104 113 -46 15 -167 13 -214 -3z"/>
<path d="M9597 726 c-49 -18 -62 -30 -86 -80 -31 -63 -30 -197 2 -257 33 -62
73 -82 172 -87 136 -7 202 28 230 122 8 27 15 51 15 53 0 2 -21 3 -47 3 -44 0
-49 -3 -63 -33 l-15 -32 -91 -3 c-116 -4 -129 7 -129 108 0 101 13 112 129
108 l91 -3 15 -32 c14 -30 19 -33 63 -33 26 0 47 1 47 3 0 2 -7 26 -15 53 -16
56 -53 96 -104 113 -46 15 -167 13 -214 -3z"/>
<path d="M9970 520 l0 -220 45 0 45 0 0 220 0 220 -45 0 -45 0 0 -220z"/>
<path d="M10207 726 c-80 -29 -106 -81 -107 -206 0 -155 48 -210 191 -218 145
-8 215 32 238 138 30 141 -14 260 -107 288 -52 16 -168 14 -215 -2z m217 -118
c11 -15 16 -45 16 -88 0 -100 -11 -110 -118 -110 -48 0 -92 4 -99 8 -18 11
-33 58 -33 102 0 44 15 91 33 102 7 4 51 8 99 8 79 0 88 -2 102 -22z"/>
<path d="M10580 520 l0 -220 45 0 44 0 3 152 3 152 104 -152 105 -152 68 0 68
0 0 220 0 220 -45 0 -44 0 -3 -156 -3 -156 -106 154 -105 153 -67 3 -67 3 0
-221z"/>
</g>
</svg>
